<svg width="54.000000" height="53.000000" viewBox="0 0 54 53" fill="none" xmlns="http://www.w3.org/2000/svg" xmlns:xlink="http://www.w3.org/1999/xlink">
	<defs>
		<clipPath id="clip60_298">
			<rect id="mobile-plus_major" rx="0.000000" width="53.000000" height="52.000000" transform="translate(0.500000 0.500000)" fill="white" fill-opacity="0"/>
		</clipPath>
	</defs>
	<rect id="mobile-plus_major" rx="0.000000" width="53.000000" height="52.000000" transform="translate(0.500000 0.500000)" fill="#FFFFFF" fill-opacity="0"/>
	<g clip-path="url(#clip60_298)">
		<path id="Primary fill" d="M45.9 23.84L29.7 23.84L29.7 7.94C29.7 7.24 29.41 6.57 28.9 6.07C28.4 5.57 27.71 5.29 27 5.29C26.28 5.29 25.59 5.57 25.09 6.07C24.58 6.57 24.3 7.24 24.3 7.94L24.3 23.84L8.09 23.84C7.38 23.84 6.69 24.12 6.19 24.62C5.68 25.12 5.4 25.79 5.4 26.5C5.4 27.2 5.68 27.87 6.19 28.37C6.69 28.87 7.38 29.14 8.09 29.14L24.3 29.14L24.3 45.04C24.3 45.75 24.58 46.42 25.09 46.92C25.59 47.42 26.28 47.69 27 47.69C27.71 47.69 28.4 47.42 28.9 46.92C29.41 46.42 29.7 45.75 29.7 45.04L29.7 29.14L45.9 29.14C46.61 29.14 47.3 28.87 47.8 28.37C48.31 27.87 48.6 27.2 48.6 26.5C48.6 25.79 48.31 25.12 47.8 24.62C47.3 24.12 46.61 23.84 45.9 23.84Z" fill="#5C5F62" fill-opacity="1.000000" fill-rule="evenodd"/>
	</g>
</svg>
