<svg width="81.000000" height="80.000000" viewBox="0 0 81 80" fill="none" xmlns="http://www.w3.org/2000/svg" xmlns:xlink="http://www.w3.org/1999/xlink">
	<g clip-path="url(#clip59_272)">
		<path id="Ellipse 132" d="M43.39 64.21Q50.43 64.21 56.11 60.12Q61.81 56.04 63.97 49.45Q66.15 42.85 63.97 36.26Q61.8 29.66 56.12 25.58Q50.43 21.49 43.39 21.5L43.39 18.5Q51.39 18.49 57.86 23.14Q64.35 27.79 66.82 35.32Q69.3 42.85 66.82 50.38Q64.35 57.91 57.86 62.56Q51.4 67.21 43.39 67.21L43.39 64.21Z" fill="#000000" fill-opacity="1.000000" fill-rule="evenodd"/>
		<path id="Vector 195" d="M29.65 63.57L43.39 63.57" stroke="#000000" stroke-opacity="1.000000" stroke-width="3.000000" stroke-linecap="round"/>
		<path id="Vector 196" d="M16.63 22.14L43.39 22.14M28.2 33.57L16.63 22.14L28.2 10.71" stroke="#000000" stroke-opacity="1.000000" stroke-width="3.000000" stroke-linecap="round"/>
		<path id="↳ Icon Color" d="M29.73 12.22C30.58 11.39 30.58 10.03 29.73 9.19C28.89 8.36 27.51 8.36 26.67 9.19L15.09 20.62C14.25 21.46 14.25 22.82 15.09 23.65L26.67 35.08C27.51 35.92 28.89 35.92 29.73 35.08C30.58 34.24 30.58 32.89 29.73 32.05L21.87 24.28L43.39 24.28C45.86 24.28 48.3 24.76 50.58 25.69C52.87 26.63 54.94 28 56.68 29.72C58.43 31.44 59.82 33.49 60.76 35.75C61.71 38 62.19 40.41 62.19 42.85C62.19 45.29 61.71 47.71 60.76 49.96C59.82 52.21 58.43 54.26 56.68 55.98C54.94 57.71 52.87 59.08 50.58 60.01C48.3 60.94 45.86 61.42 43.39 61.42L29.65 61.42C28.45 61.42 27.48 62.38 27.48 63.57C27.48 64.75 28.45 65.71 29.65 65.71L43.39 65.71C46.43 65.71 49.44 65.12 52.24 63.97C55.05 62.82 57.6 61.14 59.75 59.01C61.9 56.89 63.61 54.37 64.77 51.6C65.93 48.83 66.53 45.85 66.53 42.85C66.53 39.85 65.93 36.88 64.77 34.1C63.61 31.33 61.9 28.81 59.75 26.69C57.6 24.57 55.05 22.88 52.24 21.73C49.44 20.59 46.43 20 43.39 20C43.39 20 43.39 20 43.39 20L21.87 20L29.73 12.22Z" fill="#000000" fill-opacity="1.000000" fill-rule="evenodd"/>
	</g>
</svg>
