<svg width="44.000000" height="46.000000" viewBox="0 0 44 46" fill="none" xmlns="http://www.w3.org/2000/svg" xmlns:xlink="http://www.w3.org/1999/xlink">
	<defs>
		<clippath id="clip60_316">
			<rect id="attachment_major" rx="0.000000" width="43.000000" height="45.000000" transform="translate(0.500000 0.500000)" fill="white" fill-opacity="0"/>
		</clippath>
	</defs>
	<rect id="attachment_major" rx="0.000000" width="43.000000" height="45.000000" transform="translate(0.500000 0.500000)" fill="#FFFFFF" fill-opacity="0"/>
	<g clip-path="url(#clip60_316)">
		<path id="Primary fill" d="M11.53 46C10.02 46 8.52 45.69 7.12 45.08C5.72 44.48 4.44 43.59 3.37 42.47C2.3 41.35 1.45 40.02 0.87 38.56C0.29 37.09 -0.01 35.53 0 33.94C0 30.72 1.2 27.69 3.37 25.41L24.31 3.52C26.47 1.26 29.41 -0.01 32.46 -0.01C35.52 -0.01 38.45 1.26 40.62 3.52C41.69 4.64 42.54 5.97 43.12 7.43C43.7 8.89 44 10.46 44 12.05C44 13.63 43.7 15.2 43.12 16.66C42.54 18.13 41.69 19.46 40.62 20.58L31.25 30.37C29.96 31.72 28.22 32.47 26.4 32.47C24.57 32.47 22.83 31.72 21.54 30.37C20.9 29.71 20.39 28.92 20.05 28.04C19.7 27.17 19.53 26.24 19.53 25.29C19.53 23.37 20.24 21.57 21.54 20.22L31.44 9.86C31.64 9.64 31.89 9.47 32.15 9.35C32.42 9.23 32.71 9.16 33 9.16C33.3 9.16 33.58 9.22 33.86 9.33C34.13 9.45 34.37 9.62 34.58 9.84C34.78 10.05 34.95 10.31 35.06 10.59C35.17 10.87 35.22 11.18 35.22 11.48C35.22 11.79 35.16 12.09 35.04 12.37C34.93 12.65 34.76 12.9 34.55 13.12L24.65 23.47C24.42 23.71 24.24 23.99 24.11 24.31C23.99 24.62 23.93 24.96 23.93 25.29C23.93 25.98 24.18 26.63 24.65 27.12C25.11 27.6 25.74 27.87 26.4 27.87C27.05 27.87 27.68 27.6 28.14 27.12L37.51 17.32C38.17 16.63 38.7 15.81 39.06 14.9C39.41 14 39.6 13.03 39.6 12.05C39.6 10.06 38.85 8.18 37.51 6.77C36.17 5.38 34.35 4.59 32.46 4.59C30.57 4.59 28.76 5.38 27.42 6.77L6.48 28.66C5.82 29.36 5.29 30.18 4.93 31.08C4.58 31.99 4.39 32.96 4.4 33.94C4.4 35.93 5.14 37.81 6.48 39.22C7.82 40.61 9.64 41.4 11.53 41.4C13.42 41.4 15.23 40.61 16.57 39.22L20.44 35.17C20.64 34.95 20.89 34.78 21.15 34.66C21.42 34.54 21.71 34.47 22 34.47C22.3 34.47 22.58 34.53 22.86 34.64C23.13 34.76 23.37 34.93 23.58 35.14C23.78 35.36 23.95 35.62 24.06 35.9C24.17 36.18 24.22 36.49 24.22 36.79C24.22 37.1 24.16 37.4 24.04 37.68C23.93 37.96 23.76 38.21 23.55 38.43L19.69 42.47C18.61 43.59 17.34 44.48 15.94 45.08C14.54 45.69 13.04 46 11.53 46Z" fill="#5C5F62" fill-opacity="1.000000" fill-rule="evenodd"/>
	</g>
</svg>
