<svg width="80.000000" height="80.000000" viewBox="0 0 80 80" fill="none" xmlns="http://www.w3.org/2000/svg" xmlns:xlink="http://www.w3.org/1999/xlink">
	<defs>
		<clipPath id="clip59_188">
			<rect id="error_triangle_outline_56" rx="0.000000" width="79.000000" height="79.000000" transform="translate(0.500000 0.500000)" fill="white" fill-opacity="0"/>
		</clipPath>
	</defs>
	<g clip-path="url(#clip59_188)">
		<path d="M32.57 10C35.87 4.28 44.12 4.28 47.42 10L73.4 55C76.7 60.71 72.57 67.85 65.98 67.85L14.01 67.85C7.42 67.85 3.29 60.71 6.59 55L32.57 10ZM43.71 12.14L69.69 57.14C71.34 60 69.27 63.57 65.98 63.57L14.01 63.57C10.72 63.57 8.65 60 10.3 57.14L36.28 12.14C37.93 9.28 42.06 9.28 43.71 12.14ZM39.99 23.57C41.18 23.57 42.14 24.53 42.14 25.71L42.14 41.42L42.13 41.63C42.02 42.72 41.11 43.57 39.99 43.57C38.81 43.57 37.85 42.61 37.85 41.42L37.85 25.71L37.86 25.5C37.97 24.42 38.88 23.57 39.99 23.57ZM42.85 51.42C42.85 49.85 41.57 48.57 39.99 48.57C38.42 48.57 37.14 49.85 37.14 51.42C37.14 53 38.42 54.28 39.99 54.28C41.57 54.28 42.85 53 42.85 51.42Z" fill="#5C5F62" fill-opacity="1.000000" fill-rule="evenodd"/>
	</g>
</svg>
