<svg width="80.000000" height="80.000000" viewBox="0 0 81 80" fill="none" xmlns="http://www.w3.org/2000/svg" xmlns:xlink="http://www.w3.org/1999/xlink">
	<defs>
		<clipPath id="clip59_210">
			<rect rx="0.000000" width="80.000000" height="79.000000" transform="translate(0.500000 0.500000)" fill="white" fill-opacity="0"/>
		</clipPath>
	</defs>
	<g clip-path="url(#clip59_210)">
		<path d="M10.57 17.93C8.67 21.59 8.67 26.39 8.67 36L8.67 44C8.67 53.6 8.67 58.4 10.57 62.06C12.23 65.29 14.88 67.91 18.15 69.56C21.86 71.42 26.72 71.42 36.45 71.42L44.55 71.42C54.27 71.42 59.13 71.42 62.84 69.56C66.11 67.91 68.76 65.29 70.42 62.06C72.32 58.4 72.32 53.6 72.32 44L72.32 36C72.32 26.39 72.32 21.59 70.42 17.93C68.76 14.7 66.11 12.08 62.84 10.43C61.08 9.55 59.07 9.08 56.41 8.84L56.41 5C56.41 3.81 55.43 2.85 54.24 2.85C53.04 2.85 52.07 3.81 52.07 5L52.07 8.62C49.93 8.57 47.45 8.57 44.55 8.57L36.45 8.57C33.54 8.57 31.06 8.57 28.92 8.62L28.92 5C28.92 3.81 27.95 2.85 26.75 2.85C25.56 2.85 24.58 3.81 24.58 5L24.58 8.84C21.92 9.08 19.91 9.55 18.15 10.43C14.88 12.08 12.23 14.7 10.57 17.93ZM36.45 12.85L44.55 12.85C47.55 12.85 50 12.85 52.07 12.9L52.07 17.85C52.07 19.04 53.04 20 54.24 20C55.43 20 56.41 19.04 56.41 17.85L56.41 13.15C58.54 13.37 59.85 13.74 60.87 14.25C63.32 15.49 65.31 17.45 66.56 19.87C67.14 21 67.54 22.49 67.76 25.08C67.84 26.12 67.89 27.26 67.93 28.57L13.06 28.57C13.1 27.26 13.15 26.12 13.24 25.08C13.45 22.49 13.85 21 14.43 19.87C15.68 17.45 17.67 15.49 20.12 14.25C21.14 13.74 22.45 13.37 24.58 13.15L24.58 17.85C24.58 19.04 25.56 20 26.75 20C27.95 20 28.92 19.04 28.92 17.85L28.92 12.9C30.99 12.85 33.44 12.85 36.45 12.85ZM13.01 44L13.01 36C13.01 34.87 13.01 33.83 13.02 32.85L67.97 32.85C67.98 33.83 67.98 34.87 67.98 36L67.98 44C67.98 48.87 67.97 52.26 67.76 54.91C67.54 57.5 67.14 58.99 66.56 60.12C65.31 62.54 63.32 64.5 60.87 65.74C59.73 66.31 58.22 66.71 55.59 66.92C52.92 67.13 49.48 67.14 44.55 67.14L36.45 67.14C31.51 67.14 28.07 67.13 25.4 66.92C22.77 66.71 21.26 66.31 20.12 65.74C17.67 64.5 15.68 62.54 14.43 60.12C13.85 58.99 13.45 57.5 13.24 54.91C13.02 52.26 13.01 48.87 13.01 44ZM52.29 53.19C52.07 53.71 52.07 54.38 52.07 55.71C52.07 57.04 52.07 57.71 52.29 58.23C52.58 58.93 53.14 59.49 53.85 59.78C54.38 60 55.06 60 56.41 60C57.75 60 58.43 60 58.96 59.78C59.67 59.49 60.23 58.93 60.52 58.23C60.75 57.71 60.75 57.04 60.75 55.71C60.75 54.38 60.75 53.71 60.52 53.19C60.23 52.49 59.67 51.93 58.96 51.64C58.43 51.42 57.75 51.42 56.41 51.42C55.06 51.42 54.38 51.42 53.85 51.64C53.14 51.93 52.58 52.49 52.29 53.19Z" fill="#5C5F62" fill-opacity="1.000000" fill-rule="evenodd"/>
	</g>
</svg>
