<svg width="53.000000" height="52.000000" viewBox="0 0 53 52" fill="none" xmlns="http://www.w3.org/2000/svg" xmlns:xlink="http://www.w3.org/1999/xlink">
	<rect id="mobile-cancel_major" rx="0.000000" width="52.000000" height="51.000000" transform="translate(0.500000 0.500000)" fill="#FFFFFF" fill-opacity="0"/>
	<g clip-path="url(#clip60_304)">
		<path id="Primary fill" d="M30.24 26L46.92 9.63C47.42 9.15 47.69 8.48 47.69 7.79C47.69 7.11 47.42 6.44 46.92 5.96C46.42 5.47 45.75 5.2 45.04 5.2C44.34 5.2 43.67 5.47 43.17 5.96L26.49 22.32L9.82 5.96C9.57 5.72 9.28 5.52 8.96 5.39C8.64 5.26 8.29 5.2 7.94 5.2C7.6 5.2 7.25 5.26 6.93 5.39C6.61 5.52 6.32 5.72 6.07 5.96C5.57 6.44 5.3 7.11 5.3 7.79C5.3 8.48 5.57 9.15 6.07 9.63L22.75 26L6.07 42.36C5.57 42.84 5.3 43.51 5.3 44.19C5.3 44.88 5.57 45.55 6.07 46.03C6.57 46.52 7.24 46.79 7.94 46.79C8.65 46.79 9.32 46.52 9.82 46.03L26.49 29.67L43.17 46.03C43.42 46.28 43.71 46.47 44.03 46.6C44.35 46.73 44.7 46.8 45.04 46.8C45.39 46.8 45.74 46.73 46.06 46.6C46.38 46.47 46.67 46.28 46.92 46.03C47.16 45.79 47.36 45.51 47.49 45.19C47.63 44.87 47.7 44.54 47.7 44.19C47.7 43.85 47.63 43.52 47.49 43.2C47.36 42.88 47.16 42.6 46.92 42.36L30.24 26Z" fill="#5C5F62" fill-opacity="1.000000" fill-rule="evenodd"/>
	</g>
</svg>
