<svg width="80.000000" height="80.000000" viewBox="0 0 80 80" fill="none" xmlns="http://www.w3.org/2000/svg" xmlns:xlink="http://www.w3.org/1999/xlink">
	<defs>
		<clipPath id="clip59_19">
			<rect id="comments_outline_56" rx="0.000000" width="78.000000" height="78.000000" transform="translate(1.000000 1.000000)" fill="white" fill-opacity="0"/>
		</clipPath>
	</defs>
	<g clip-path="url(#clip59_19)">
		<path d="M26.42 7.14C21.3 7.14 17.14 11.3 17.14 16.42L17.14 42.14C17.14 47.27 21.3 51.42 26.42 51.42L37.39 51.42C38.57 51.42 39.71 51.84 40.61 52.6L40.63 52.61L54.15 63.45C56.47 65.38 60 63.73 60 60.7L60 51.42L66.42 51.42C71.55 51.42 75.71 47.27 75.71 42.14L75.71 16.42C75.71 11.3 71.55 7.14 66.42 7.14L26.42 7.14ZM21.42 16.42C21.42 13.66 23.66 11.42 26.42 11.42L66.42 11.42C69.19 11.42 71.42 13.66 71.42 16.42L71.42 42.14C71.42 44.9 69.19 47.14 66.42 47.14L59.28 47.14C57.31 47.14 55.71 48.74 55.71 50.71L55.71 59.21L43.35 49.3C41.68 47.9 39.57 47.14 37.39 47.14L26.42 47.14C23.66 47.14 21.42 44.9 21.42 42.14L21.42 16.42ZM11.13 21.52C12.29 21.29 13.04 20.16 12.8 19C12.57 17.84 11.44 17.09 10.28 17.32C6.04 18.18 2.85 21.93 2.85 26.42L2.85 52.14C2.85 57.27 7.01 61.42 12.13 61.42L19.98 61.42L19.98 70.71C19.98 73.73 23.5 75.39 25.83 73.46L40.24 61.85L40.66 61.5C41.57 60.74 41.68 59.39 40.92 58.48C40.16 57.57 38.81 57.46 37.9 58.22L37.51 58.54L24.27 69.21L24.27 60.71C24.27 58.74 22.67 57.14 20.7 57.14L12.13 57.14C9.38 57.14 7.14 54.9 7.14 52.14L7.14 26.42C7.14 24.01 8.85 21.99 11.13 21.52Z" fill="#5C5F62" fill-opacity="1.000000" fill-rule="evenodd"/>
	</g>
</svg>
