<svg width="81.000000" height="80.000000" viewBox="0 0 81 80" fill="none" xmlns="http://www.w3.org/2000/svg" xmlns:xlink="http://www.w3.org/1999/xlink">
	<defs>
		<clipPath id="clip59_246">
			<rect id="write_outline_56" rx="0.000000" width="80.000000" height="79.000000" transform="translate(0.500000 0.500000)" fill="white" fill-opacity="0"/>
		</clipPath>
	</defs>
	<g clip-path="url(#clip59_246)">
		<path id="↳ Icon Color" d="M30.83 10L50.77 10C51.22 10 51.66 10.01 52.07 10.02L52.07 14.3C51.48 14.29 50.85 14.28 50.16 14.28L30.83 14.28L29.76 14.29C24.98 14.34 22.88 14.79 20.71 15.94C18.73 16.98 17.19 18.5 16.13 20.46C14.93 22.67 14.49 24.82 14.46 29.91L14.46 50.08C14.49 55.17 14.93 57.32 16.13 59.53C17.19 61.49 18.73 63.01 20.71 64.05C22.88 65.2 24.98 65.65 29.76 65.7L30.83 65.71L50.16 65.71L51.23 65.7C56.01 65.65 58.11 65.2 60.28 64.05C62.26 63.01 63.8 61.49 64.86 59.53C66.06 57.32 66.5 55.17 66.53 50.08L66.53 29.91C66.53 29.44 66.52 28.99 66.51 28.56L70.85 28.56C70.86 28.98 70.87 29.4 70.87 29.85L70.87 50.14C70.83 55.86 70.25 58.66 68.68 61.55C67.22 64.26 65.06 66.39 62.32 67.83C59.49 69.33 56.75 69.92 51.36 69.99L50.16 70L30.83 70L29.63 69.99C24.24 69.92 21.5 69.33 18.67 67.83C15.93 66.39 13.77 64.26 12.31 61.55C10.74 58.66 10.16 55.86 10.12 50.14L10.12 29.85C10.16 24.13 10.74 21.33 12.31 18.44C13.77 15.73 15.93 13.6 18.67 12.16C21.5 10.66 24.24 10.07 29.63 10L30.83 10ZM67.05 13.77C68.03 14.75 68.03 16.33 67.05 17.31L40.79 43.24C40.12 43.9 39.46 44.49 38.79 45.03C38.12 45.57 37.43 46.06 36.7 46.52C35.97 46.98 35.2 47.41 34.35 47.83L33.88 48.06C33.31 48.35 32.61 48.12 32.33 47.55C32.16 47.23 32.16 46.85 32.33 46.53L32.56 46.06C32.99 45.23 33.42 44.46 33.89 43.74C34.35 43.02 34.85 42.34 35.39 41.68C35.94 41.02 36.54 40.37 37.21 39.71L63.47 13.77C64.46 12.8 66.06 12.8 67.05 13.77ZM68.7 25.71C69.9 25.71 70.87 26.67 70.87 27.85L70.87 28.57L66.53 28.57L66.53 27.85C66.53 26.67 67.5 25.71 68.7 25.71ZM52.79 10C53.99 10 54.96 10.95 54.96 12.14C54.96 13.32 53.99 14.28 52.79 14.28L52.07 14.28L52.07 10L52.79 10ZM70.87 7.14C72.47 7.14 73.76 8.42 73.76 10C73.76 11.57 72.47 12.85 70.87 12.85C69.27 12.85 67.98 11.57 67.98 10C67.98 8.42 69.27 7.14 70.87 7.14Z" fill="#5C5F62" fill-opacity="1.000000" fill-rule="evenodd"/>
	</g>
</svg>
