<svg width="80.000000" height="80.000000" viewBox="0 0 80 80" fill="none" xmlns="http://www.w3.org/2000/svg" xmlns:xlink="http://www.w3.org/1999/xlink">
	<defs>
		<clipPath id="clip59_258">
			<rect id="document_outline_56" rx="0.000000" width="79.000000" height="79.000000" transform="translate(0.500000 0.500000)" fill="white" fill-opacity="0"/>
		</clipPath>
	</defs>
	<g clip-path="url(#clip59_258)">
		<path id="↳ Icon Color" d="M43.99 6.04C45.07 6.29 46.05 6.69 46.99 7.28C47.89 7.84 48.6 8.44 49.98 9.81L64.18 24.01C65.76 25.58 66.39 26.33 67 27.29C67.58 28.23 67.99 29.2 68.24 30.28C68.49 31.39 68.57 32.36 68.57 34.59L68.57 54.23C68.57 59.78 68.06 62.41 66.6 65.14C65.28 67.61 63.33 69.56 60.86 70.88C58.12 72.34 55.49 72.85 49.94 72.85L31.48 72.85C25.93 72.85 23.3 72.34 20.56 70.88C18.09 69.56 16.14 67.61 14.82 65.14C13.36 62.41 12.85 59.78 12.85 54.23L12.85 22.33C12.85 18.77 13.49 15.91 14.82 13.42C16.14 10.95 18.09 9 20.56 7.68C23.06 6.35 25.91 5.71 29.47 5.71L39.68 5.71C41.91 5.71 42.89 5.79 43.99 6.04ZM40.03 10L29.47 10C26.58 10 24.42 10.48 22.58 11.46C20.86 12.38 19.52 13.72 18.6 15.44C17.62 17.28 17.14 19.44 17.14 22.33L17.14 54.23C17.14 59.13 17.52 61.09 18.6 63.12C19.52 64.84 20.86 66.18 22.58 67.1C24.61 68.19 26.58 68.57 31.48 68.57L49.94 68.57C54.84 68.57 56.81 68.19 58.84 67.1C60.56 66.18 61.9 64.84 62.82 63.12C63.9 61.09 64.28 59.13 64.28 54.23L64.28 34.59C64.28 33.79 64.27 33.2 64.25 32.74C64.03 32.81 63.81 32.85 63.57 32.85L47.85 32.85C44.3 32.85 41.42 29.97 41.42 26.42L41.42 10.71C41.42 10.47 41.46 10.24 41.53 10.03C41.14 10.01 40.66 10 40.03 10ZM45.71 11.66L45.71 26.42C45.71 27.61 46.67 28.57 47.85 28.57L62.61 28.57C62.28 28.19 61.83 27.72 61.15 27.04L47.24 13.12C46.56 12.45 46.09 11.99 45.71 11.66Z" fill="#5C5F62" fill-opacity="1.000000" fill-rule="evenodd"/>
	</g>
</svg>
