<svg width="97.000000" height="91.000000" viewBox="0 0 97 91" fill="none" xmlns="http://www.w3.org/2000/svg" xmlns:xlink="http://www.w3.org/1999/xlink">
	<path id="Vector" d="M78.81 17.06L60.62 17.06L42.43 0L0 0L0 73.93L36.37 73.93L36.37 91L97 91L97 34.12L78.81 17.06ZM42.43 5.68L54.56 17.06L42.43 17.06L42.43 5.68ZM6.06 68.25L6.06 5.68L36.37 5.68L36.37 22.75L54.56 22.75L54.56 68.25L6.06 68.25ZM90.93 85.31L42.43 85.31L42.43 73.93L60.62 73.93L60.62 22.75L72.75 22.75L72.75 39.81L90.93 39.81L90.93 85.31ZM78.81 34.12L78.81 22.75L90.93 34.12L78.81 34.12Z" fill="#1C2E45" fill-opacity="0.600000" fill-rule="evenodd"/>
</svg>
