<svg width="54.000000" height="53.000000" viewBox="0 0 54 53" fill="none" xmlns="http://www.w3.org/2000/svg" xmlns:xlink="http://www.w3.org/1999/xlink">
	<rect id="add-image_major" rx="0.000000" width="53.000000" height="52.000000" transform="translate(0.500000 0.500000)" fill="#FFFFFF" fill-opacity="0"/>
	<g clip-path="url(#clip60_292)">
		<path id="Primary fill" d="M47.25 2.64C49.48 2.64 51.3 4.42 51.3 6.62L51.3 26.5L43.2 26.5C40.91 26.5 38.74 26.96 36.77 27.79L34.83 24.48C34.31 23.66 33.12 23.63 32.56 24.43L24.3 37.1L19.89 32.19C19.35 31.66 18.46 31.66 17.95 32.22L8.36 42.95C7.71 43.83 8.33 45.04 9.44 45.04L27 45.04L27 50.35L6.75 50.35C4.51 50.35 2.69 48.57 2.69 46.37L2.69 6.62C2.69 4.42 4.51 2.64 6.75 2.64L47.25 2.64ZM25.65 17.22C25.65 14.31 23.22 11.92 20.25 11.92C17.28 11.92 14.85 14.31 14.85 17.22C14.85 20.14 17.28 22.52 20.25 22.52C23.22 22.52 25.65 20.14 25.65 17.22ZM51.3 39.75C52.01 39.75 52.7 40.02 53.2 40.52C53.71 41.02 54 41.69 54 42.39C54 43.1 53.71 43.77 53.2 44.27C52.7 44.77 52.01 45.04 51.3 45.04L45.9 45.04L45.9 50.35C45.9 51.05 45.61 51.72 45.1 52.22C44.6 52.72 43.91 53 43.2 53C42.48 53 41.79 52.72 41.29 52.22C40.78 51.72 40.5 51.05 40.5 50.35L40.5 45.04L35.09 45.04C34.38 45.04 33.69 44.77 33.19 44.27C32.68 43.77 32.4 43.1 32.4 42.39C32.4 41.69 32.68 41.02 33.19 40.52C33.69 40.02 34.38 39.75 35.09 39.75L40.5 39.75L40.5 34.44C40.5 33.74 40.78 33.07 41.29 32.57C41.79 32.07 42.48 31.79 43.2 31.79C43.91 31.79 44.6 32.07 45.1 32.57C45.61 33.07 45.9 33.74 45.9 34.44L45.9 39.75L51.3 39.75Z" fill="#5C5F62" fill-opacity="1.000000" fill-rule="evenodd"/>
	</g>
</svg>
