<svg width="80.000000" height="80.000000" viewBox="0 0 80 80" fill="none" xmlns="http://www.w3.org/2000/svg" xmlns:xlink="http://www.w3.org/1999/xlink">
	<path id="↳ Icon Color" d="M24.33 8.57L45.67 8.57C47.99 8.57 49.86 8.57 51.38 8.69C52.94 8.82 54.31 9.09 55.58 9.73C57.6 10.76 59.24 12.4 60.27 14.42C61.24 16.32 61.38 18.54 61.42 21.39L61.42 21.56C61.44 22.74 60.49 23.71 59.31 23.73C58.12 23.74 57.15 22.79 57.14 21.61L57.14 21.45C57.1 18.52 56.91 17.26 56.45 16.36C55.83 15.15 54.85 14.17 53.64 13.55C53.07 13.27 52.33 13.07 51.03 12.96C49.71 12.85 48.01 12.85 45.57 12.85L24.43 12.85C21.99 12.85 20.29 12.85 18.97 12.96C17.67 13.07 16.93 13.27 16.36 13.55C15.15 14.17 14.17 15.15 13.55 16.36C13.27 16.93 13.07 17.67 12.96 18.97C12.85 20.29 12.85 21.99 12.85 24.42L12.85 54.14C12.85 56.57 12.85 58.27 12.96 59.59C13.07 60.89 13.27 61.63 13.55 62.2C14.17 63.41 15.15 64.39 16.36 65.01C16.93 65.3 17.67 65.49 18.97 65.6C20.29 65.71 21.99 65.71 24.43 65.71L45.57 65.71C48.01 65.71 49.71 65.71 51.03 65.6C52.33 65.49 53.07 65.3 53.64 65.01C54.85 64.39 55.83 63.41 56.45 62.2C56.88 61.36 57.08 60.19 57.13 57.58C57.15 56.4 58.13 55.46 59.31 55.48C60.5 55.5 61.44 56.48 61.41 57.67C61.36 60.27 61.19 62.34 60.27 64.14C59.24 66.16 57.6 67.8 55.58 68.83C54.31 69.47 52.94 69.74 51.38 69.87C49.86 70 47.99 70 45.67 70L24.33 70C22.01 70 20.14 70 18.62 69.87C17.06 69.74 15.69 69.47 14.42 68.83C12.4 67.8 10.76 66.16 9.73 64.14C9.09 62.88 8.82 61.5 8.69 59.94C8.57 58.43 8.57 56.55 8.57 54.23L8.57 24.33C8.57 22.01 8.57 20.14 8.69 18.62C8.82 17.06 9.09 15.69 9.73 14.42C10.76 12.4 12.4 10.76 14.42 9.73C15.69 9.09 17.06 8.82 18.62 8.69C20.14 8.57 22.01 8.57 24.33 8.57ZM71.39 25.5C69.44 23.55 66.27 23.55 64.32 25.5L44.74 45.08C43.53 46.29 42.85 47.92 42.85 49.63L42.85 53.57C42.85 54.75 43.81 55.71 45 55.71L48.93 55.71C50.64 55.71 52.27 55.03 53.48 53.83L73.06 34.24C75.01 32.29 75.01 29.13 73.06 27.17L71.39 25.5ZM20 26.42C20 25.24 20.95 24.28 22.14 24.28L47.85 24.28C49.04 24.28 50 25.24 50 26.42C50 27.61 49.04 28.57 47.85 28.57L22.14 28.57C20.95 28.57 20 27.61 20 26.42ZM67.35 28.53C67.63 28.25 68.08 28.25 68.36 28.53L70.03 30.2C70.31 30.48 70.31 30.94 70.03 31.21L67.85 33.39L65.17 30.71L67.35 28.53ZM62.14 33.74L47.77 48.11C47.36 48.51 47.14 49.06 47.14 49.63L47.14 51.42L48.93 51.42C49.5 51.42 50.05 51.2 50.45 50.8L64.82 36.42L62.14 33.74ZM22.14 37.14C20.95 37.14 20 38.1 20 39.28C20 40.46 20.95 41.42 22.14 41.42L36.42 41.42C37.61 41.42 38.57 40.46 38.57 39.28C38.57 38.1 37.61 37.14 36.42 37.14L22.14 37.14ZM22.14 50C20.95 50 20 50.95 20 52.14C20 53.32 20.95 54.28 22.14 54.28L30.71 54.28C31.89 54.28 32.85 53.32 32.85 52.14C32.85 50.95 31.89 50 30.71 50L22.14 50Z" fill="#5C5F62" fill-opacity="1.000000" fill-rule="evenodd"/>
</svg>
