<svg width="54.000000" height="53.000000" viewBox="0 0 54 53" fill="none" xmlns="http://www.w3.org/2000/svg" xmlns:xlink="http://www.w3.org/1999/xlink">
	<defs>
		<clipPath id="clip60_310">
			<rect id="illustration_major" rx="0.000000" width="53.000000" height="52.000000" transform="translate(0.500000 0.500000)" fill="white" fill-opacity="0"/>
		</clipPath>
	</defs>
	<rect rx="0.000000" width="53.000000" height="52.000000" transform="translate(0.500000 0.500000)" fill="#FFFFFF" fill-opacity="0"/>
	<g clip-path="url(#clip60_310)">
		<path d="M53.68 3.07C53.68 3.34 53.41 3.6 53.14 3.87L42.62 21.04C38.57 27.64 32.64 33.18 25.62 36.88C24.28 32.66 20.77 29.22 16.72 27.64C20.5 20.77 25.89 14.96 32.91 11L50.45 0.7C50.58 0.56 50.72 0.5 50.85 0.43C50.99 0.37 51.12 0.3 51.26 0.17C52.06 -0.1 52.87 -0.1 53.68 0.43C53.7 0.52 53.73 0.6 53.75 0.68L53.75 0.68C53.99 1.61 54.18 2.34 53.68 3.07ZM21.58 42.43C21.58 48.24 16.72 53 10.79 53L0 53L0 42.43C0 36.62 4.85 31.86 10.79 31.86C16.72 31.86 21.58 36.62 21.58 42.43Z" fill="#5C5F62" fill-opacity="1.000000" fill-rule="evenodd"/>
	</g>
</svg>
