<svg width="81.000000" height="80.000000" viewBox="0 0 81 80" fill="none" xmlns="http://www.w3.org/2000/svg" xmlns:xlink="http://www.w3.org/1999/xlink">
	<defs>
		<clippath id="clip59_234">
			<rect rx="0.000000" width="80.000000" height="79.000000" transform="translate(0.500000 0.500000)" fill="white" fill-opacity="0"/>
		</clippath>
	</defs>
	<rect rx="0.000000" width="80.000000" height="79.000000" transform="translate(0.500000 0.500000)" fill="#FFFFFF" fill-opacity="0"/>
	<g clip-path="url(#clip59_234)">
		<path d="M26.75 5.71C27.95 5.71 28.92 6.67 28.92 7.85L28.92 10C29.92 10 30.99 10 32.15 10L38.33 10L38.33 7.85C38.33 6.67 39.3 5.71 40.5 5.71C41.69 5.71 42.66 6.67 42.66 7.85L42.66 10L48.84 10C50 10 51.07 10 52.07 10L52.07 7.85C52.07 6.67 53.04 5.71 54.24 5.71C55.43 5.71 56.41 6.67 56.41 7.85L56.41 10.15C56.44 10.15 56.48 10.16 56.52 10.16C58.58 10.32 60.33 10.67 61.92 11.47C64.51 12.78 66.61 14.85 67.93 17.41C68.74 18.98 69.09 20.7 69.26 22.74C69.42 24.74 69.42 27.21 69.42 30.33L69.42 51.09C69.42 54.21 69.42 56.68 69.26 58.68C69.09 60.71 68.74 62.44 67.93 64.01C66.61 66.57 64.51 68.64 61.92 69.94C60.33 70.75 58.58 71.09 56.52 71.26C54.5 71.42 51.99 71.42 48.84 71.42L32.15 71.42C29 71.42 26.49 71.42 24.47 71.26C22.41 71.09 20.66 70.75 19.07 69.94C16.48 68.64 14.38 66.57 13.06 64.01C12.25 62.44 11.9 60.71 11.73 58.68C11.57 56.68 11.57 54.21 11.57 51.09L11.57 30.33C11.57 27.21 11.57 24.74 11.73 22.74C11.9 20.7 12.25 18.98 13.06 17.41C14.38 14.85 16.48 12.78 19.07 11.47C20.66 10.67 22.41 10.32 24.47 10.16L24.58 10.15L24.58 7.85C24.58 6.67 25.56 5.71 26.75 5.71ZM48.74 14.28C49.98 14.28 51.08 14.28 52.07 14.29L52.07 16.42C52.07 17.61 53.04 18.57 54.24 18.57C55.43 18.57 56.41 17.61 56.41 16.42L56.41 14.45C58.06 14.6 59.11 14.87 59.95 15.29C61.72 16.18 63.16 17.6 64.06 19.35C64.51 20.22 64.79 21.32 64.93 23.09C65.08 24.89 65.08 27.19 65.08 30.42L65.08 51C65.08 54.23 65.08 56.53 64.93 58.33C64.79 60.1 64.51 61.2 64.06 62.07C63.16 63.81 61.72 65.24 59.95 66.13C59.07 66.57 57.96 66.84 56.16 66.99C54.34 67.14 52.02 67.14 48.74 67.14L32.25 67.14C28.97 67.14 26.65 67.14 24.83 66.99C23.03 66.84 21.92 66.57 21.04 66.13C19.27 65.24 17.83 63.81 16.93 62.07C16.48 61.2 16.2 60.1 16.06 58.33C15.91 56.53 15.91 54.23 15.91 51L15.91 30.42C15.91 27.19 15.91 24.89 16.06 23.09C16.2 21.32 16.48 20.22 16.93 19.35C17.83 17.6 19.27 16.18 21.04 15.29C21.88 14.87 22.93 14.6 24.58 14.45L24.58 16.42C24.58 17.61 25.56 18.57 26.75 18.57C27.95 18.57 28.92 17.61 28.92 16.42L28.92 14.29C29.91 14.28 31.01 14.28 32.25 14.28L38.33 14.28L38.33 16.42C38.33 17.61 39.3 18.57 40.5 18.57C41.69 18.57 42.66 17.61 42.66 16.42L42.66 14.28L48.74 14.28ZM55.77 33.65C56.62 32.82 56.62 31.46 55.77 30.62C54.92 29.79 53.55 29.79 52.7 30.62L36.88 46.25L29.73 39.19C28.89 38.36 27.51 38.36 26.67 39.19C25.82 40.03 25.82 41.39 26.67 42.22L35.34 50.8C36.19 51.63 37.57 51.63 38.41 50.8L55.77 33.65Z" fill="#5C5F62" fill-opacity="1.000000" fill-rule="evenodd"/>
	</g>
</svg>
