<svg width="81.000000" height="80.000000" viewBox="0 0 81 80" fill="none" xmlns="http://www.w3.org/2000/svg" xmlns:xlink="http://www.w3.org/1999/xlink">
	<path d="M49.52 57.14L53.8 57.14C60.28 57.14 63.52 57.14 66 55.89C68.18 54.8 69.95 53.05 71.06 50.9C72.32 48.45 72.32 45.25 72.32 38.85L72.32 29C72.32 22.59 72.32 19.39 71.06 16.95C69.95 14.8 68.18 13.05 66 11.96C63.52 10.71 60.28 10.71 53.8 10.71L27.19 10.71C20.71 10.71 17.47 10.71 14.99 11.96C12.81 13.05 11.04 14.8 9.93 16.95C8.67 19.39 8.67 22.59 8.67 29L8.67 38.85C8.67 45.25 8.67 48.45 9.93 50.9C11.04 53.05 12.81 54.8 14.99 55.89C17.47 57.14 20.71 57.14 27.19 57.14L31.47 57.14L29.95 67.14L19.52 67.14C18.32 67.14 17.35 68.1 17.35 69.28C17.35 70.46 18.32 71.42 19.52 71.42L61.47 71.42C62.67 71.42 63.64 70.46 63.64 69.28C63.64 68.1 62.67 67.14 61.47 67.14L51.04 67.14L49.52 57.14ZM53.8 15L27.19 15C23.88 15 21.65 15 19.94 15.14C18.28 15.27 17.49 15.51 16.96 15.77C15.6 16.46 14.49 17.55 13.8 18.89C13.53 19.41 13.29 20.2 13.16 21.84C13.02 23.53 13.01 25.72 13.01 29L13.01 38.85C13.01 42.12 13.02 44.32 13.16 46.01C13.29 47.65 13.53 48.43 13.8 48.95C14.49 50.3 15.6 51.39 16.96 52.07C17.49 52.34 18.28 52.58 19.94 52.71C21.65 52.85 23.88 52.85 27.19 52.85L53.8 52.85C57.11 52.85 59.34 52.85 61.05 52.71C62.71 52.58 63.5 52.34 64.03 52.07C65.39 51.39 66.5 50.3 67.19 48.95C67.46 48.43 67.7 47.65 67.83 46.01C67.97 44.32 67.98 42.12 67.98 38.85L67.98 29C67.98 25.72 67.97 23.53 67.83 21.84C67.7 20.2 67.46 19.41 67.19 18.89C66.5 17.55 65.39 16.46 64.03 15.77C63.5 15.51 62.71 15.27 61.05 15.14C59.34 15 57.11 15 53.8 15ZM45.14 57.14L35.85 57.14L34.34 67.14L46.65 67.14L45.14 57.14Z" fill="#5C5F62" fill-opacity="1.000000" fill-rule="evenodd"/>
</svg>
