<svg width="48.000000" height="49.000000" viewBox="0 0 48 49" fill="none" xmlns="http://www.w3.org/2000/svg" xmlns:xlink="http://www.w3.org/1999/xlink">
	<rect id="apps_major" rx="0.000000" width="47.000000" height="48.000000" transform="translate(0.500000 0.500000)" fill="#FFFFFF" fill-opacity="0"/>
	<g clip-path="url(#clip60_322)">
		<path id="Primary fill" d="M21.6 22.05L2.4 22.05L2.4 6.12C2.4 5.15 2.77 4.21 3.45 3.52C4.12 2.83 5.04 2.45 6 2.45L21.6 2.45L21.6 22.05ZM21.6 26.95L21.6 46.55L6 46.55C5.04 46.55 4.12 46.16 3.45 45.47C2.77 44.78 2.4 43.85 2.4 42.87L2.4 26.95L21.6 26.95ZM26.4 26.95L26.4 46.55L42 46.55C42.95 46.55 43.87 46.16 44.54 45.47C45.22 44.78 45.6 43.85 45.6 42.87L45.6 26.95L26.4 26.95ZM36 2.45C36.63 2.45 37.24 2.7 37.69 3.16C38.14 3.62 38.4 4.25 38.4 4.9L38.4 9.8L43.2 9.8C43.83 9.8 44.44 10.05 44.89 10.51C45.34 10.97 45.6 11.6 45.6 12.25C45.6 12.89 45.34 13.52 44.89 13.98C44.44 14.44 43.83 14.7 43.2 14.7L38.4 14.7L38.4 19.6C38.4 20.25 38.14 20.87 37.69 21.33C37.24 21.79 36.63 22.05 36 22.05C35.36 22.05 34.75 21.79 34.3 21.33C33.85 20.87 33.59 20.25 33.59 19.6L33.59 14.7L28.8 14.7C28.16 14.7 27.55 14.44 27.1 13.98C26.65 13.52 26.4 12.89 26.4 12.25C26.4 11.6 26.65 10.97 27.1 10.51C27.55 10.05 28.16 9.8 28.8 9.8L33.59 9.8L33.59 4.9C33.59 4.25 33.85 3.62 34.3 3.16C34.75 2.7 35.36 2.45 36 2.45L36 2.45Z" fill="#5C5F62" fill-opacity="1.000000" fill-rule="evenodd"/>
	</g>
</svg>
