<svg width="80.000000" height="80.000000" viewBox="0 0 80 80" fill="none" xmlns="http://www.w3.org/2000/svg" xmlns:xlink="http://www.w3.org/1999/xlink">
	<defs>
		<filter id="filter_58_19_dd" x="0.000000" y="0.000000" width="80.000000" height="80.000000" filterUnits="userSpaceOnUse" color-interpolation-filters="sRGB">
			<feflood flood-opacity="0" result="BackgroundImageFix"/>
			<feblend mode="normal" in="SourceGraphic" in2="BackgroundImageFix" result="shape"/>
			<fecolormatrix in="SourceAlpha" type="matrix" values="0 0 0 0 0 0 0 0 0 0 0 0 0 0 0 0 0 0 127 0" result="hardAlpha"/>
			<feoffset dx="0" dy="4"/>
			<fegaussianblur stdDeviation="1.33333"/>
			<fecomposite in2="hardAlpha" operator="arithmetic" k2="-1" k3="1"/>
			<fecolormatrix type="matrix" values="0 0 0 0 0 0 0 0 0 0 0 0 0 0 0 0 0 0 0.25 0"/>
			<feblend mode="normal" in2="shape" result="effect_innerShadow_1"/>
		</filter>
	</defs>
	<g filter="url(#filter_58_19_dd)">
		<rect id="Icon-twitter" rx="0.000000" width="79.000000" height="79.000000" transform="translate(0.500000 0.500000)" fill="#FFFFFF" fill-opacity="0"/>
		<path id="twitter" d="M79.84 15.3C76.9 16.6 73.74 17.48 70.43 17.87C73.81 15.85 76.41 12.65 77.64 8.84C74.47 10.71 70.96 12.07 67.23 12.8C64.24 9.62 59.99 7.64 55.27 7.64C46.23 7.64 38.89 14.96 38.89 23.98C38.89 25.25 39.04 26.5 39.32 27.7C25.7 27.01 13.63 20.51 5.55 10.63C4.14 13.04 3.33 15.85 3.33 18.84C3.33 24.51 6.23 29.51 10.62 32.44C7.93 32.35 5.41 31.62 3.2 30.4C3.2 30.46 3.2 30.53 3.2 30.6C3.2 38.52 8.85 45.11 16.34 46.62C14.97 46.99 13.52 47.19 12.03 47.19C10.97 47.19 9.95 47.08 8.94 46.89C11.03 53.38 17.08 58.11 24.25 58.24C18.64 62.62 11.58 65.23 3.9 65.23C2.58 65.23 1.27 65.15 0 65C7.25 69.64 15.86 72.34 25.11 72.34C55.24 72.34 71.72 47.45 71.72 25.86C71.72 25.15 71.7 24.45 71.67 23.75C74.87 21.46 77.64 18.58 79.84 15.3L79.84 15.3L79.84 15.3Z" fill="#7EADE7" fill-opacity="1.000000" fill-rule="evenodd"/>
	</g>
</svg>
